<svg xmlns="http://www.w3.org/2000/svg" width="1280" height="720" viewBox="0 0 1280 720">
  <defs>
    <linearGradient id="bg" x1="0" y1="0" x2="1" y2="1">
      <stop offset="0%" stop-color="#1a093d" />
      <stop offset="55%" stop-color="#0f0f0f" />
      <stop offset="100%" stop-color="#070707" />
    </linearGradient>
    <linearGradient id="card" x1="0" y1="0" x2="1" y2="1">
      <stop offset="0%" stop-color="#7C3AED" stop-opacity="0.25" />
      <stop offset="100%" stop-color="#FFFFFF" stop-opacity="0.08" />
    </linearGradient>
  </defs>

  <rect width="1280" height="720" fill="url(#bg)"/>

  <text x="56" y="66" fill="#F3F4F6" font-family="Segoe UI, Arial, sans-serif" font-size="34" font-weight="700">GRS Fantasy Park Smart MIS Dashboard</text>
  <text x="56" y="98" fill="#D1D5DB" font-family="Segoe UI, Arial, sans-serif" font-size="17">Executive Summary • Live Alert Feed • Predictive Intelligence</text>

  <rect x="56" y="126" rx="14" ry="14" width="1168" height="52" fill="#7f1d1d" fill-opacity="0.40" stroke="#f87171" stroke-opacity="0.42"/>
  <text x="74" y="160" fill="#FEE2E2" font-family="Segoe UI, Arial, sans-serif" font-size="16" font-weight="600">LIVE ALERT FEED • Capacity pressure rising • Weekend dependency high • Review weekday campaigns</text>

  <rect x="56" y="198" rx="16" ry="16" width="1168" height="98" fill="url(#card)" stroke="#ffffff" stroke-opacity="0.18"/>
  <text x="74" y="232" fill="#F3F4F6" font-family="Segoe UI, Arial, sans-serif" font-size="22" font-weight="700">Executive Summary</text>
  <text x="74" y="266" fill="#D1D5DB" font-family="Segoe UI, Arial, sans-serif" font-size="16">Revenue growth: 18.2%  |  Weekend visitor share: 61.4%  |  Avg capacity utilization: 76.8%</text>

  <rect x="56" y="322" rx="14" ry="14" width="275" height="128" fill="url(#card)" stroke="#ffffff" stroke-opacity="0.16"/>
  <text x="74" y="356" fill="#D6BCFA" font-family="Segoe UI, Arial, sans-serif" font-size="14">TOTAL REVENUE</text>
  <text x="74" y="402" fill="#F59E0B" font-family="Segoe UI, Arial, sans-serif" font-size="36" font-weight="700">Rs 99.3M</text>

  <rect x="351" y="322" rx="14" ry="14" width="275" height="128" fill="url(#card)" stroke="#ffffff" stroke-opacity="0.16"/>
  <text x="369" y="356" fill="#D6BCFA" font-family="Segoe UI, Arial, sans-serif" font-size="14">TOTAL VISITORS</text>
  <text x="369" y="402" fill="#38BDF8" font-family="Segoe UI, Arial, sans-serif" font-size="36" font-weight="700">120,845</text>

  <rect x="646" y="322" rx="14" ry="14" width="275" height="128" fill="url(#card)" stroke="#ffffff" stroke-opacity="0.16"/>
  <text x="664" y="356" fill="#D6BCFA" font-family="Segoe UI, Arial, sans-serif" font-size="14">AVG REV / VISITOR</text>
  <text x="664" y="402" fill="#34D399" font-family="Segoe UI, Arial, sans-serif" font-size="36" font-weight="700">Rs 822</text>

  <rect x="941" y="322" rx="14" ry="14" width="283" height="128" fill="url(#card)" stroke="#ffffff" stroke-opacity="0.16"/>
  <text x="959" y="356" fill="#D6BCFA" font-family="Segoe UI, Arial, sans-serif" font-size="14">REVENUE GROWTH</text>
  <text x="959" y="402" fill="#A78BFA" font-family="Segoe UI, Arial, sans-serif" font-size="36" font-weight="700">+18.2%</text>

  <rect x="56" y="470" rx="16" ry="16" width="1168" height="194" fill="#0b1022" fill-opacity="0.55" stroke="#ffffff" stroke-opacity="0.10"/>
  <text x="74" y="505" fill="#F3F4F6" font-family="Segoe UI, Arial, sans-serif" font-size="20" font-weight="700">Overview Analytics</text>
  <polyline points="86,618 196,566 306,584 416,540 526,522 636,534 746,496 856,520 966,472 1076,486 1186,460" fill="none" stroke="#7C3AED" stroke-width="5"/>
  <text x="74" y="640" fill="#A5B4FC" font-family="Segoe UI, Arial, sans-serif" font-size="14">Forecast + trend visualization sample</text>
</svg>
